<?xml version="1.0" encoding="UTF-8"?>
<svg width="144px" height="27px" viewBox="0 0 144 27" version="1.1" xmlns="http://www.w3.org/2000/svg" xmlns:xlink="http://www.w3.org/1999/xlink">
    <!-- Generator: Sketch 52.2 (67145) - http://www.bohemiancoding.com/sketch -->
    <title>Logo/blue 2</title>
    <desc>Created with Sketch.</desc>
    <defs>
        <polygon id="path-1" points="5.99156118e-05 0.17634 26.1873764 0.17634 26.1873764 26.4 5.99156118e-05 26.4"></polygon>
    </defs>
    <g id="Symbols" stroke="none" stroke-width="1" fill="none" fill-rule="evenodd">
        <g id="Top-nav/light/out" transform="translate(-30.000000, -16.000000)">
            <g id="Logo/blue-2" transform="translate(30.000000, 16.000000)">
                <g id="Logo/blue">
                    <g id="Group-40">
                        <path d="M74.3382152,12.27546 C74.2028059,12.26946 74.0667975,12.26286 73.9277932,12.25686 C73.8097595,12.25146 73.6935232,12.24726 73.5802827,12.24306 C71.98473,12.18366 71.4796414,12.10866 71.4796414,10.94106 C71.4796414,9.84666 72.2094135,9.66246 73.8433122,9.66246 L74.1602658,9.66246 C75.6611519,9.66246 77.7216498,10.06386 77.7426203,10.06806 L78.1991772,10.15806 L78.5922236,7.71306 L78.1794051,7.62006 C78.0961224,7.60146 76.1087215,7.15926 73.854097,7.15926 C70.7774304,7.15926 68.7283165,7.84146 68.7283165,11.17506 C68.7283165,14.67966 71.0788059,14.82726 73.5665021,14.98326 C73.7108987,14.99166 73.8564937,15.00126 74.0050844,15.01146 C74.2016076,15.02346 74.387346,15.03366 74.5622996,15.04266 C76.1470675,15.12606 76.3903249,15.13866 76.3903249,16.39866 C76.3903249,17.64846 75.5724768,17.78586 73.8367215,17.78586 C72.0314641,17.78586 69.7540717,17.34786 69.7313038,17.34306 L69.263962,17.25306 L68.9284346,19.71786 L69.32927,19.80966 C69.4179451,19.82946 71.5299705,20.30706 74.0518186,20.30706 C76.6455654,20.30706 79.1775992,19.98306 79.1775992,16.11066 C79.1775992,12.48846 76.7174641,12.37986 74.3382152,12.27546" id="Fill-1" fill="#006EB7"></path>
                        <path d="M111.831668,17.90634 C109.07495,17.90634 108.839482,17.55534 108.839482,13.75074 C108.839482,9.94674 109.07495,9.59514 111.831668,9.59514 C114.660883,9.59514 114.769929,9.96774 114.769929,13.75074 C114.769929,17.53434 114.660883,17.90634 111.831668,17.90634 M111.831668,7.19454 C106.815532,7.19454 106.058199,8.67114 106.058199,13.75074 C106.058199,18.83034 106.815532,20.30694 111.831668,20.30694 C117.083271,20.30694 117.551811,18.60774 117.551811,13.75074 C117.551811,8.89374 117.083271,7.19454 111.831668,7.19454" id="Fill-3" fill="#006EB7"></path>
                        <polygon id="Fill-5" fill="#006EB7" points="57.9485992 9.78876 57.9485992 7.28496 48.5771983 7.28496 48.5771983 20.18076 57.9485992 20.18076 57.9485992 17.67756 51.3476962 17.67756 51.3476962 14.81376 57.732903 14.81376 57.732903 12.34656 51.3476962 12.34656 51.3476962 9.78876"></polygon>
                        <polygon id="Fill-7" fill="#006EB7" points="91.0748025 9.78876 91.0748025 7.28496 81.7034017 7.28496 81.7022034 20.18076 91.0748025 20.18076 91.0748025 17.67756 84.4727013 17.67756 84.4727013 14.81376 90.8591063 14.81376 90.8591063 12.34656 84.4727013 12.34656 84.4727013 9.78876"></polygon>
                        <polygon id="Fill-9" fill="#006EB7" points="131.875896 7.28508 131.875896 9.80628 136.355187 9.80628 136.355187 18.07548 136.355187 20.18088 139.125685 20.18088 139.125685 18.07548 139.125685 13.73268 139.125685 9.80628 143.603179 9.80628 143.603179 7.28508"></polygon>
                        <path d="M99.4553789,13.63602 L105.173126,7.28502 L102.002991,7.28502 L97.2139359,12.32142 C97.0581553,12.47682 96.8933873,12.62142 96.7406025,12.62142 C96.6153789,12.62142 96.6153789,12.62142 96.6153789,12.40482 L96.6153789,7.28502 L93.844881,7.28502 L93.844881,13.18782 L93.844881,13.42242 L93.844881,13.63602 L93.844881,20.18082 L96.6153789,20.18082 L96.6153789,15.06042 C96.6153789,14.84502 96.6153789,14.84502 96.7406025,14.84502 C96.8933873,14.84502 97.0581553,14.98902 97.2139359,15.14502 L102.130611,20.18082 L105.778273,20.18082 L99.4553789,13.63602 Z" id="Fill-11" fill="#006EB7"></path>
                        <path d="M38.2536785,13.3659 L38.2536785,9.7281 L41.3830709,9.7281 C42.3201511,9.7281 42.8689781,9.8025 43.1152312,10.0281 C43.3734675,10.2639 43.3992312,10.9707 43.3992312,11.4627 C43.3992312,11.9607 43.3459063,12.8427 43.126016,13.0545 C42.9091215,13.2717 42.5058895,13.3659 41.3830709,13.3659 L38.2536785,13.3659 Z M42.9438726,15.5115 C42.9438726,15.5115 43.0960582,15.5067 43.241054,15.4947 C44.1170203,15.3843 44.8270203,15.0543 45.2961595,14.5305 C45.8827333,13.8807 46.1673325,12.7545 46.1673325,11.4009 C46.1673325,8.4975 45.0031722,7.2843 42.012784,7.2843 L35.4837797,7.2843 L35.4831806,20.1807 L38.2536785,20.1807 L38.2536785,18.0765 L38.2536785,16.3239 L38.2536785,15.7053 L40.8809781,15.7053 L40.8809781,17.1141 L43.2200835,20.1807 L46.5651722,20.1807 L42.9438726,15.5115 Z" id="Fill-13" fill="#006EB7"></path>
                        <path d="M63.6148186,7.28508 L63.6148186,16.43448 C63.6148186,17.80128 63.5189536,17.91168 62.3374177,17.91168 C61.4278987,17.91168 60.504,17.76708 60.3512152,17.74248 L60.0887848,20.08128 C60.4111308,20.14308 61.54773,20.34348 62.6789367,20.34348 C64.6034262,20.34348 66.3841181,19.92408 66.3841181,16.88508 L66.3847173,7.28508 L63.6148186,7.28508 Z" id="Fill-15" fill="#006EB7"></path>
                        <path d="M122.864588,13.3659 L122.864588,9.7281 L125.993981,9.7281 C126.931061,9.7281 127.479888,9.8025 127.726141,10.0281 C127.984377,10.2639 128.010141,10.9707 128.010141,11.4627 C128.010141,11.9607 127.956217,12.8427 127.736926,13.0545 C127.520031,13.2717 127.116799,13.3659 125.993981,13.3659 L122.864588,13.3659 Z M127.554183,15.5115 C127.554183,15.5115 127.706968,15.5067 127.851964,15.4947 C128.72793,15.3843 129.438529,15.0543 129.907069,14.5305 C130.493643,13.8807 130.778841,12.7545 130.778841,11.4009 C130.778841,8.4975 129.614082,7.2843 126.623694,7.2843 L120.094689,7.2843 L120.094689,20.1807 L122.864588,20.1807 L122.864588,18.0765 L122.864588,16.3239 L122.864588,15.7053 L125.491888,15.7053 L125.491888,17.1141 L127.831592,20.1807 L131.176082,20.1807 L127.554183,15.5115 Z" id="Fill-17" fill="#006EB7"></path>
                        <g id="Group-21" transform="translate(0.000000, 0.424080)">
                            <mask id="mask-2" fill="white">
                                <use xlink:href="#path-1"></use>
                            </mask>
                            <g id="Clip-20"></g>
                            <path d="M5.99156118e-05,13.28874 C5.99156118e-05,6.04614 5.86280253,0.17634 13.0940177,0.17634 C20.3258321,0.17634 26.1873764,6.04614 26.1873764,13.28874 C26.1873764,20.53074 20.3258321,26.40054 13.0940177,26.40054 C5.86280253,26.40054 5.99156118e-05,20.53074 5.99156118e-05,13.28874" id="Fill-19" fill="#007AC0" mask="url(#mask-2)"></path>
                        </g>
                        <path d="M1.30921603,13.71282 C1.30921603,7.19502 6.58538481,1.91142 13.0934186,1.91142 C19.6026506,1.91142 24.8782203,7.19502 24.8782203,13.71282 C24.8782203,20.23002 19.6026506,25.51362 13.0934186,25.51362 C6.58538481,25.51362 1.30921603,20.23002 1.30921603,13.71282" id="Fill-22" fill="#1083C6"></path>
                        <path d="M2.61903122,13.71282 C2.61903122,7.91922 7.30922532,3.22302 13.0934785,3.22302 C18.8795291,3.22302 23.5685249,7.91922 23.5685249,13.71282 C23.5685249,19.50522 18.8795291,24.20142 13.0934785,24.20142 C7.30922532,24.20142 2.61903122,19.50522 2.61903122,13.71282" id="Fill-24" fill="#448FCD"></path>
                        <path d="M3.92818734,13.71282 C3.92818734,8.64342 8.03180759,4.53342 13.0934785,4.53342 C18.1557485,4.53342 22.2593688,8.64342 22.2593688,13.71282 C22.2593688,18.78162 18.1557485,22.89042 13.0934785,22.89042 C8.03180759,22.89042 3.92818734,18.78162 3.92818734,13.71282" id="Fill-26" fill="#649CD3"></path>
                        <path d="M5.23800253,13.71282 C5.23800253,9.36762 8.75504895,5.84562 13.0935384,5.84562 C17.4332262,5.84562 20.9496734,9.36762 20.9496734,13.71282 C20.9496734,18.05742 17.4332262,21.57882 13.0935384,21.57882 C8.75504895,21.57882 5.23800253,18.05742 5.23800253,13.71282" id="Fill-28" fill="#7FA9DA"></path>
                        <path d="M6.54715865,13.71282 C6.54715865,10.09182 9.47823038,7.15602 13.0941376,7.15602 C16.7088464,7.15602 19.6405173,10.09182 19.6405173,13.71282 C19.6405173,17.33322 16.7088464,20.26902 13.0941376,20.26902 C9.47823038,20.26902 6.54715865,17.33322 6.54715865,13.71282" id="Fill-30" fill="#96B7E1"></path>
                        <path d="M7.85637468,13.71282 C7.85637468,10.81602 10.2008726,8.46762 13.0935983,8.46762 C15.9863241,8.46762 18.3308219,10.81602 18.3308219,13.71282 C18.3308219,16.60842 15.9863241,18.95682 13.0935983,18.95682 C10.2008726,18.95682 7.85637468,16.60842 7.85637468,13.71282" id="Fill-32" fill="#ADC5E7"></path>
                        <path d="M9.16583038,13.71282 C9.16583038,11.53962 10.9249527,9.77922 13.0938979,9.77922 C15.2634422,9.77922 17.0213662,11.53962 17.0213662,13.71282 C17.0213662,15.88542 15.2634422,17.64582 13.0938979,17.64582 C10.9249527,17.64582 9.16583038,15.88542 9.16583038,13.71282" id="Fill-34" fill="#C2D3EE"></path>
                        <path d="M10.4747468,13.71282 C10.4747468,12.26382 11.6478945,11.08962 13.0936582,11.08962 C14.5406203,11.08962 15.7125696,12.26382 15.7125696,13.71282 C15.7125696,15.16182 14.5406203,16.33542 13.0936582,16.33542 C11.6478945,16.33542 10.4747468,15.16182 10.4747468,13.71282" id="Fill-36" fill="#D7E1F3"></path>
                        <path d="M11.7845021,13.71282 C11.7845021,12.98802 12.3704768,12.40122 13.0936582,12.40122 C13.8174388,12.40122 14.4028143,12.98802 14.4028143,13.71282 C14.4028143,14.43702 13.8174388,15.02502 13.0936582,15.02502 C12.3704768,15.02502 11.7845021,14.43702 11.7845021,13.71282" id="Fill-38" fill="#EBF0F9"></path>
                    </g>
                </g>
            </g>
        </g>
    </g>
</svg>